<?xml version="1.0"?>
<svg xmlns="http://www.w3.org/2000/svg" viewBox="0 0 512 512" width="512" height="512"><g id="solid"><path d="M386.47,144,363.111,85.6a14.063,14.063,0,0,1,5.233-16.848l.568-.379a93.757,93.757,0,0,1,104.283,0l.569.379A14.065,14.065,0,0,1,479,85.6L455.638,144H438.812l6.086-30.431a8,8,0,1,0-15.689-3.138L422.5,144h-2.883L412.9,110.431a8,8,0,1,0-15.689,3.138L403.3,144Zm50.584,320a16,16,0,0,1-32,0V304h32ZM438.5,288H403.612l-2.162-10.812A639.914,639.914,0,0,1,389.1,160H453q-.3,24.012-2.428,48H429.054a8,8,0,0,0,0,16h19.91q-3.037,26.775-8.307,53.188Z"/><path d="M312,269.874a2,2,0,0,1,2.633-1.9l15.691,5.23A19.976,19.976,0,0,1,344,292.182V352H312ZM352,480H304V400h48Zm0-96H304V368h48Z"/><path d="M144,272a96.009,96.009,0,0,1,83.145,144H208.027A80.013,80.013,0,1,0,80,416H60.855A96.009,96.009,0,0,1,144,272Zm11.243,33.009a63.512,63.512,0,0,1,18.919,6.563l-77.848,99.08a64.008,64.008,0,0,1-9.634-14.225Zm-74.495,72.66a63.892,63.892,0,0,1,54.822-73.1Zm106.474-56.821A64.281,64.281,0,0,1,202.593,342.3s-57.485,73.251-57.717,73.7H112.46ZM120,432h48a8,8,0,0,1,0,16H120a8,8,0,0,1,0-16Zm45.032-16,42.656-54.29c.2,2.071.312,4.167.312,6.29a63.7,63.7,0,0,1-21.688,48ZM97.376,432A23.992,23.992,0,0,0,120,464h48a23.991,23.991,0,0,0,22.626-31.993l.033-.007h65.189A52.069,52.069,0,0,1,204,480H84a52.069,52.069,0,0,1-51.848-48Z"/><path d="M296,136h0a50.6,50.6,0,0,1-32,32h0l12.82,8.547a50.6,50.6,0,0,1,17.189,19.471L296,200l1.991-3.982a50.6,50.6,0,0,1,17.189-19.471L328,168h0a50.6,50.6,0,0,1-32-32Z"/><path d="M208,184h0a50.6,50.6,0,0,1-32,32h0l12.82,8.547a50.6,50.6,0,0,1,17.189,19.471L208,248l1.991-3.982a50.6,50.6,0,0,1,17.189-19.471L240,216h0a50.6,50.6,0,0,1-32-32Z"/><path d="M240,64h0a50.6,50.6,0,0,1-32,32h0l12.82,8.547a50.6,50.6,0,0,1,17.189,19.471L240,128l1.991-3.982a50.6,50.6,0,0,1,17.189-19.471L272,96h0a50.6,50.6,0,0,1-32-32Z"/></g></svg>
